# xmcd CD database file generated by Grip 2.96
# 
# Track frame offsets:
#       150
#       13749
#       26186
#       43450
#       56600
#       70324
#       83187
#       98799
#       114183
#       123854
#       136534
#       149518
#       166549
# 
# Disc length: 3806 seconds
# 
# Revision: 0
# Processed by: cddbd v1.4PL0 Copyright (c) Steve Scherf et al.
# Submitted via: Grip 2.96
# 
DISCID=ab0edc0d
DTITLE=Slim Cessna's Auto Club - American Country Music Changed Her Life
DYEAR=1900
DGENRE=
TTITLE0=Lethal Injection
TTITLE1=Wade in the Water
TTITLE2=Come Along
TTITLE3=Sometimes I Wonder
TTITLE4=Never Too Late
TTITLE5=Bartender
TTITLE6=Lonely in Hell
TTITLE7=Raven
TTITLE8=Barrel of My Gun
TTITLE9=Help Me Make It (Through the Night)
TTITLE10=Hotter
TTITLE11=Night on the Town
TTITLE12=Counting Steps
EXTD=
EXTT0=
EXTT1=
EXTT2=
EXTT3=
EXTT4=
EXTT5=
EXTT6=
EXTT7=
EXTT8=
EXTT9=
EXTT10=
EXTT11=
EXTT12=
PLAYORDER=
